<mxfile host="app.diagrams.net" modified="2023-07-12T15:35:06.081Z" agent="Mozilla/5.0 (Windows NT 10.0; Win64; x64) AppleWebKit/537.36 (KHTML, like Gecko) Chrome/114.0.0.0 Safari/537.36 Edg/114.0.1823.79" etag="-atM6yAarzdiGS0GjI_K" version="21.6.2" type="github">
  <diagram name="第 1 页" id="tVffoqSjHYd0tt0ZEKK2">
    <mxGraphModel dx="996" dy="573" grid="1" gridSize="10" guides="1" tooltips="1" connect="1" arrows="1" fold="1" page="1" pageScale="1" pageWidth="827" pageHeight="1169" math="0" shadow="0">
      <root>
        <mxCell id="0" />
        <mxCell id="1" parent="0" />
        <mxCell id="padz9aUcN7-EcLLzX4se-22" value="" style="edgeStyle=orthogonalEdgeStyle;rounded=0;orthogonalLoop=1;jettySize=auto;html=1;" edge="1" parent="1" source="padz9aUcN7-EcLLzX4se-1" target="padz9aUcN7-EcLLzX4se-11">
          <mxGeometry relative="1" as="geometry" />
        </mxCell>
        <mxCell id="padz9aUcN7-EcLLzX4se-1" value="1" style="rounded=0;whiteSpace=wrap;html=1;" vertex="1" parent="1">
          <mxGeometry x="200" y="396" width="40" height="40" as="geometry" />
        </mxCell>
        <mxCell id="padz9aUcN7-EcLLzX4se-2" value="2" style="rounded=0;whiteSpace=wrap;html=1;" vertex="1" parent="1">
          <mxGeometry x="260" y="396" width="40" height="40" as="geometry" />
        </mxCell>
        <mxCell id="padz9aUcN7-EcLLzX4se-3" value="3" style="rounded=0;whiteSpace=wrap;html=1;" vertex="1" parent="1">
          <mxGeometry x="320" y="396" width="40" height="40" as="geometry" />
        </mxCell>
        <mxCell id="padz9aUcN7-EcLLzX4se-41" style="edgeStyle=orthogonalEdgeStyle;rounded=0;orthogonalLoop=1;jettySize=auto;html=1;entryX=0.5;entryY=1;entryDx=0;entryDy=0;strokeWidth=3;" edge="1" parent="1" source="padz9aUcN7-EcLLzX4se-4" target="padz9aUcN7-EcLLzX4se-14">
          <mxGeometry relative="1" as="geometry" />
        </mxCell>
        <mxCell id="padz9aUcN7-EcLLzX4se-4" value="4" style="rounded=0;whiteSpace=wrap;html=1;" vertex="1" parent="1">
          <mxGeometry x="380" y="396" width="40" height="40" as="geometry" />
        </mxCell>
        <mxCell id="padz9aUcN7-EcLLzX4se-5" value="5" style="rounded=0;whiteSpace=wrap;html=1;" vertex="1" parent="1">
          <mxGeometry x="440" y="396" width="40" height="40" as="geometry" />
        </mxCell>
        <mxCell id="padz9aUcN7-EcLLzX4se-29" style="edgeStyle=orthogonalEdgeStyle;rounded=0;orthogonalLoop=1;jettySize=auto;html=1;entryX=0.5;entryY=1;entryDx=0;entryDy=0;strokeWidth=3;" edge="1" parent="1" source="padz9aUcN7-EcLLzX4se-6" target="padz9aUcN7-EcLLzX4se-16">
          <mxGeometry relative="1" as="geometry" />
        </mxCell>
        <mxCell id="padz9aUcN7-EcLLzX4se-6" value="6" style="rounded=0;whiteSpace=wrap;html=1;" vertex="1" parent="1">
          <mxGeometry x="500" y="396" width="40" height="40" as="geometry" />
        </mxCell>
        <mxCell id="padz9aUcN7-EcLLzX4se-7" value="7" style="rounded=0;whiteSpace=wrap;html=1;" vertex="1" parent="1">
          <mxGeometry x="560" y="396" width="40" height="40" as="geometry" />
        </mxCell>
        <mxCell id="padz9aUcN7-EcLLzX4se-40" style="edgeStyle=orthogonalEdgeStyle;rounded=0;orthogonalLoop=1;jettySize=auto;html=1;exitX=0.5;exitY=0;exitDx=0;exitDy=0;entryX=0.5;entryY=1;entryDx=0;entryDy=0;strokeWidth=3;" edge="1" parent="1" source="padz9aUcN7-EcLLzX4se-8" target="padz9aUcN7-EcLLzX4se-18">
          <mxGeometry relative="1" as="geometry" />
        </mxCell>
        <mxCell id="padz9aUcN7-EcLLzX4se-8" value="8" style="rounded=0;whiteSpace=wrap;html=1;" vertex="1" parent="1">
          <mxGeometry x="620" y="396" width="40" height="40" as="geometry" />
        </mxCell>
        <mxCell id="padz9aUcN7-EcLLzX4se-9" value="9" style="rounded=0;whiteSpace=wrap;html=1;" vertex="1" parent="1">
          <mxGeometry x="680" y="396" width="40" height="40" as="geometry" />
        </mxCell>
        <mxCell id="padz9aUcN7-EcLLzX4se-30" style="edgeStyle=orthogonalEdgeStyle;rounded=0;orthogonalLoop=1;jettySize=auto;html=1;entryX=0.5;entryY=1;entryDx=0;entryDy=0;strokeWidth=3;" edge="1" parent="1" source="padz9aUcN7-EcLLzX4se-10" target="padz9aUcN7-EcLLzX4se-20">
          <mxGeometry relative="1" as="geometry" />
        </mxCell>
        <mxCell id="padz9aUcN7-EcLLzX4se-10" value="10" style="rounded=0;whiteSpace=wrap;html=1;" vertex="1" parent="1">
          <mxGeometry x="740" y="396" width="40" height="40" as="geometry" />
        </mxCell>
        <mxCell id="padz9aUcN7-EcLLzX4se-32" style="edgeStyle=orthogonalEdgeStyle;rounded=0;orthogonalLoop=1;jettySize=auto;html=1;exitX=0.5;exitY=0;exitDx=0;exitDy=0;entryX=0;entryY=0.5;entryDx=0;entryDy=0;strokeWidth=3;fillColor=#dae8fc;strokeColor=#6c8ebf;" edge="1" parent="1" source="padz9aUcN7-EcLLzX4se-11" target="padz9aUcN7-EcLLzX4se-12">
          <mxGeometry relative="1" as="geometry" />
        </mxCell>
        <mxCell id="padz9aUcN7-EcLLzX4se-11" value="1" style="rounded=0;whiteSpace=wrap;html=1;" vertex="1" parent="1">
          <mxGeometry x="200" y="336" width="40" height="40" as="geometry" />
        </mxCell>
        <mxCell id="padz9aUcN7-EcLLzX4se-34" style="edgeStyle=orthogonalEdgeStyle;rounded=0;orthogonalLoop=1;jettySize=auto;html=1;exitX=0.5;exitY=0;exitDx=0;exitDy=0;entryX=0;entryY=0.5;entryDx=0;entryDy=0;strokeWidth=3;fillColor=#f8cecc;strokeColor=#b85450;" edge="1" parent="1" source="padz9aUcN7-EcLLzX4se-12" target="padz9aUcN7-EcLLzX4se-14">
          <mxGeometry relative="1" as="geometry" />
        </mxCell>
        <mxCell id="padz9aUcN7-EcLLzX4se-12" value="3" style="rounded=0;whiteSpace=wrap;html=1;" vertex="1" parent="1">
          <mxGeometry x="260" y="276" width="40" height="40" as="geometry" />
        </mxCell>
        <mxCell id="padz9aUcN7-EcLLzX4se-33" style="edgeStyle=orthogonalEdgeStyle;rounded=0;orthogonalLoop=1;jettySize=auto;html=1;exitX=0.5;exitY=0;exitDx=0;exitDy=0;entryX=0;entryY=0.5;entryDx=0;entryDy=0;strokeWidth=3;fillColor=#dae8fc;strokeColor=#6c8ebf;" edge="1" parent="1" source="padz9aUcN7-EcLLzX4se-13" target="padz9aUcN7-EcLLzX4se-14">
          <mxGeometry relative="1" as="geometry" />
        </mxCell>
        <mxCell id="padz9aUcN7-EcLLzX4se-13" value="3" style="rounded=0;whiteSpace=wrap;html=1;" vertex="1" parent="1">
          <mxGeometry x="320" y="336" width="40" height="40" as="geometry" />
        </mxCell>
        <mxCell id="padz9aUcN7-EcLLzX4se-37" style="edgeStyle=orthogonalEdgeStyle;rounded=0;orthogonalLoop=1;jettySize=auto;html=1;exitX=0.5;exitY=0;exitDx=0;exitDy=0;entryX=0;entryY=0.5;entryDx=0;entryDy=0;strokeWidth=3;fillColor=#d5e8d4;strokeColor=#82b366;" edge="1" parent="1" source="padz9aUcN7-EcLLzX4se-14" target="padz9aUcN7-EcLLzX4se-18">
          <mxGeometry relative="1" as="geometry" />
        </mxCell>
        <mxCell id="padz9aUcN7-EcLLzX4se-14" value="10" style="rounded=0;whiteSpace=wrap;html=1;" vertex="1" parent="1">
          <mxGeometry x="380" y="216" width="40" height="40" as="geometry" />
        </mxCell>
        <mxCell id="padz9aUcN7-EcLLzX4se-35" style="edgeStyle=orthogonalEdgeStyle;rounded=0;orthogonalLoop=1;jettySize=auto;html=1;exitX=0.5;exitY=0;exitDx=0;exitDy=0;entryX=0;entryY=0.5;entryDx=0;entryDy=0;strokeWidth=3;fillColor=#dae8fc;strokeColor=#6c8ebf;" edge="1" parent="1" source="padz9aUcN7-EcLLzX4se-15" target="padz9aUcN7-EcLLzX4se-16">
          <mxGeometry relative="1" as="geometry" />
        </mxCell>
        <mxCell id="padz9aUcN7-EcLLzX4se-15" value="5" style="rounded=0;whiteSpace=wrap;html=1;" vertex="1" parent="1">
          <mxGeometry x="440" y="336" width="40" height="40" as="geometry" />
        </mxCell>
        <mxCell id="padz9aUcN7-EcLLzX4se-39" style="edgeStyle=orthogonalEdgeStyle;rounded=0;orthogonalLoop=1;jettySize=auto;html=1;entryX=0;entryY=0.5;entryDx=0;entryDy=0;strokeWidth=3;fillColor=#f8cecc;strokeColor=#b85450;" edge="1" parent="1" source="padz9aUcN7-EcLLzX4se-16" target="padz9aUcN7-EcLLzX4se-18">
          <mxGeometry relative="1" as="geometry">
            <Array as="points">
              <mxPoint x="520" y="176" />
            </Array>
          </mxGeometry>
        </mxCell>
        <mxCell id="padz9aUcN7-EcLLzX4se-16" value="11" style="rounded=0;whiteSpace=wrap;html=1;" vertex="1" parent="1">
          <mxGeometry x="500" y="276" width="40" height="40" as="geometry" />
        </mxCell>
        <mxCell id="padz9aUcN7-EcLLzX4se-36" style="edgeStyle=orthogonalEdgeStyle;rounded=0;orthogonalLoop=1;jettySize=auto;html=1;exitX=0.5;exitY=0;exitDx=0;exitDy=0;entryX=0;entryY=0.5;entryDx=0;entryDy=0;strokeWidth=3;fillColor=#dae8fc;strokeColor=#6c8ebf;" edge="1" parent="1" source="padz9aUcN7-EcLLzX4se-17" target="padz9aUcN7-EcLLzX4se-18">
          <mxGeometry relative="1" as="geometry" />
        </mxCell>
        <mxCell id="padz9aUcN7-EcLLzX4se-17" value="7" style="rounded=0;whiteSpace=wrap;html=1;" vertex="1" parent="1">
          <mxGeometry x="560" y="336" width="40" height="40" as="geometry" />
        </mxCell>
        <mxCell id="padz9aUcN7-EcLLzX4se-18" value="36" style="rounded=0;whiteSpace=wrap;html=1;" vertex="1" parent="1">
          <mxGeometry x="620" y="156" width="40" height="40" as="geometry" />
        </mxCell>
        <mxCell id="padz9aUcN7-EcLLzX4se-31" style="edgeStyle=orthogonalEdgeStyle;rounded=0;orthogonalLoop=1;jettySize=auto;html=1;exitX=0.5;exitY=0;exitDx=0;exitDy=0;entryX=0;entryY=0.5;entryDx=0;entryDy=0;strokeWidth=3;fillColor=#dae8fc;strokeColor=#6c8ebf;" edge="1" parent="1" source="padz9aUcN7-EcLLzX4se-19" target="padz9aUcN7-EcLLzX4se-20">
          <mxGeometry relative="1" as="geometry" />
        </mxCell>
        <mxCell id="padz9aUcN7-EcLLzX4se-19" value="9" style="rounded=0;whiteSpace=wrap;html=1;" vertex="1" parent="1">
          <mxGeometry x="680" y="336" width="40" height="40" as="geometry" />
        </mxCell>
        <mxCell id="padz9aUcN7-EcLLzX4se-20" value="19" style="rounded=0;whiteSpace=wrap;html=1;" vertex="1" parent="1">
          <mxGeometry x="740" y="276" width="40" height="40" as="geometry" />
        </mxCell>
        <mxCell id="padz9aUcN7-EcLLzX4se-21" value="" style="endArrow=classic;html=1;rounded=0;strokeWidth=2;entryX=0.5;entryY=1;entryDx=0;entryDy=0;" edge="1" parent="1" target="padz9aUcN7-EcLLzX4se-11">
          <mxGeometry width="50" height="50" relative="1" as="geometry">
            <mxPoint x="220" y="396" as="sourcePoint" />
            <mxPoint x="270" y="346" as="targetPoint" />
          </mxGeometry>
        </mxCell>
        <mxCell id="padz9aUcN7-EcLLzX4se-23" value="" style="endArrow=classic;html=1;rounded=0;strokeWidth=2;entryX=0.5;entryY=1;entryDx=0;entryDy=0;" edge="1" parent="1">
          <mxGeometry width="50" height="50" relative="1" as="geometry">
            <mxPoint x="339" y="397" as="sourcePoint" />
            <mxPoint x="339" y="377" as="targetPoint" />
          </mxGeometry>
        </mxCell>
        <mxCell id="padz9aUcN7-EcLLzX4se-24" value="" style="endArrow=classic;html=1;rounded=0;strokeWidth=2;entryX=0.5;entryY=1;entryDx=0;entryDy=0;" edge="1" parent="1">
          <mxGeometry width="50" height="50" relative="1" as="geometry">
            <mxPoint x="460" y="396" as="sourcePoint" />
            <mxPoint x="460" y="376" as="targetPoint" />
          </mxGeometry>
        </mxCell>
        <mxCell id="padz9aUcN7-EcLLzX4se-25" value="" style="endArrow=classic;html=1;rounded=0;strokeWidth=2;entryX=0.5;entryY=1;entryDx=0;entryDy=0;" edge="1" parent="1">
          <mxGeometry width="50" height="50" relative="1" as="geometry">
            <mxPoint x="580" y="396" as="sourcePoint" />
            <mxPoint x="580" y="376" as="targetPoint" />
          </mxGeometry>
        </mxCell>
        <mxCell id="padz9aUcN7-EcLLzX4se-26" value="" style="endArrow=classic;html=1;rounded=0;strokeWidth=2;entryX=0.5;entryY=1;entryDx=0;entryDy=0;" edge="1" parent="1">
          <mxGeometry width="50" height="50" relative="1" as="geometry">
            <mxPoint x="701" y="397" as="sourcePoint" />
            <mxPoint x="701" y="377" as="targetPoint" />
          </mxGeometry>
        </mxCell>
        <mxCell id="padz9aUcN7-EcLLzX4se-27" value="" style="endArrow=classic;html=1;rounded=0;strokeWidth=3;entryX=0.5;entryY=1;entryDx=0;entryDy=0;" edge="1" parent="1" target="padz9aUcN7-EcLLzX4se-12">
          <mxGeometry width="50" height="50" relative="1" as="geometry">
            <mxPoint x="280" y="396" as="sourcePoint" />
            <mxPoint x="330" y="346" as="targetPoint" />
          </mxGeometry>
        </mxCell>
        <mxCell id="padz9aUcN7-EcLLzX4se-42" value="1" style="rounded=0;whiteSpace=wrap;html=1;" vertex="1" parent="1">
          <mxGeometry x="100" y="336" width="40" height="40" as="geometry" />
        </mxCell>
        <mxCell id="padz9aUcN7-EcLLzX4se-43" value="2" style="rounded=0;whiteSpace=wrap;html=1;" vertex="1" parent="1">
          <mxGeometry x="100" y="276" width="40" height="40" as="geometry" />
        </mxCell>
        <mxCell id="padz9aUcN7-EcLLzX4se-44" value="3" style="rounded=0;whiteSpace=wrap;html=1;" vertex="1" parent="1">
          <mxGeometry x="100" y="216" width="40" height="40" as="geometry" />
        </mxCell>
        <mxCell id="padz9aUcN7-EcLLzX4se-45" value="4" style="rounded=0;whiteSpace=wrap;html=1;" vertex="1" parent="1">
          <mxGeometry x="100" y="156" width="40" height="40" as="geometry" />
        </mxCell>
        <mxCell id="padz9aUcN7-EcLLzX4se-46" value="&lt;font style=&quot;font-size: 17px;&quot;&gt;&lt;b&gt;lowbit=i&amp;amp;-i&lt;/b&gt;&lt;/font&gt;" style="text;html=1;strokeColor=none;fillColor=none;align=center;verticalAlign=middle;whiteSpace=wrap;rounded=0;" vertex="1" parent="1">
          <mxGeometry x="50" y="110" width="140" height="30" as="geometry" />
        </mxCell>
        <mxCell id="padz9aUcN7-EcLLzX4se-48" value="&lt;span style=&quot;font-size: 17px;&quot;&gt;&lt;b&gt;i&lt;/b&gt;&lt;/span&gt;" style="text;html=1;strokeColor=none;fillColor=none;align=center;verticalAlign=middle;whiteSpace=wrap;rounded=0;" vertex="1" parent="1">
          <mxGeometry x="140" y="393" width="20" height="43" as="geometry" />
        </mxCell>
        <mxCell id="padz9aUcN7-EcLLzX4se-51" value="" style="shape=flexArrow;endArrow=classic;html=1;rounded=0;entryX=0;entryY=0.5;entryDx=0;entryDy=0;" edge="1" parent="1" source="padz9aUcN7-EcLLzX4se-48" target="padz9aUcN7-EcLLzX4se-1">
          <mxGeometry width="50" height="50" relative="1" as="geometry">
            <mxPoint x="390" y="410" as="sourcePoint" />
            <mxPoint x="440" y="360" as="targetPoint" />
          </mxGeometry>
        </mxCell>
        <mxCell id="padz9aUcN7-EcLLzX4se-52" value="&lt;font style=&quot;font-size: 17px;&quot;&gt;&lt;b&gt;c[i]&lt;/b&gt;&lt;/font&gt;" style="text;html=1;strokeColor=none;fillColor=none;align=center;verticalAlign=middle;whiteSpace=wrap;rounded=0;" vertex="1" parent="1">
          <mxGeometry x="180" y="211" width="40" height="50" as="geometry" />
        </mxCell>
        <mxCell id="padz9aUcN7-EcLLzX4se-53" value="" style="shape=flexArrow;endArrow=classic;html=1;rounded=0;" edge="1" parent="1" source="padz9aUcN7-EcLLzX4se-52" target="padz9aUcN7-EcLLzX4se-12">
          <mxGeometry width="50" height="50" relative="1" as="geometry">
            <mxPoint x="390" y="410" as="sourcePoint" />
            <mxPoint x="440" y="360" as="targetPoint" />
          </mxGeometry>
        </mxCell>
      </root>
    </mxGraphModel>
  </diagram>
</mxfile>
